<svg width="84" height="81" viewBox="0 0 84 81" fill="none" xmlns="http://www.w3.org/2000/svg">
<path id="Vector" d="M83.5788 75.4587C74.4652 71.4469 69.0394 58.812 69.0394 40.5C69.0394 22.188 74.4652 9.55307 83.5788 5.54127C82.2263 3.9415 80.7827 2.42106 79.2551 0.987488C70.2687 5.99846 62.9838 18.0278 62.9838 40.5C62.9838 62.9691 70.2687 75.0015 79.2551 80.0125C80.7751 78.5682 82.2345 77.0665 83.5788 75.4587ZM20.5949 40.5C20.5949 18.0308 13.3101 5.99846 4.32367 0.990517C2.79621 2.42311 1.35259 3.94254 0 5.54127C9.11361 9.5561 14.5394 22.188 14.5394 40.5C14.5394 58.812 9.11361 71.4439 0 75.4587C1.34736 77.0665 2.80372 78.5682 4.32367 80.0125C13.3071 75.0015 20.5949 62.9691 20.5949 40.5Z" fill="#B3BEC4"/>
</svg>
