<svg width="88" height="77" viewBox="0 0 88 77" fill="none" xmlns="http://www.w3.org/2000/svg">
<path id="Vector" opacity="0.36" d="M4.44197 15.7743C3.72439 15.7743 3.05828 15.7138 2.47089 15.6048C1.68152 15.457 0.983181 15.0017 0.529495 14.3391C0.304852 14.011 0.147034 13.6418 0.0650523 13.2527C-0.0169292 12.8636 -0.0214691 12.4622 0.0516918 12.0714C0.124853 11.6805 0.274282 11.3079 0.491447 10.9748C0.708612 10.6417 0.989261 10.3546 1.31737 10.13C1.98001 9.67628 2.79574 9.50441 3.58511 9.65216C4.88705 9.8853 11.7329 9.67033 13.1166 2.76094C13.2743 1.97358 13.7385 1.28116 14.4068 0.835986C14.7377 0.615561 15.1088 0.462474 15.4989 0.385465C15.889 0.308455 16.2904 0.309032 16.6802 0.387163C17.0701 0.465294 17.4408 0.619449 17.771 0.840826C18.1013 1.0622 18.3848 1.34646 18.6052 1.67738C18.8256 2.0083 18.9787 2.3794 19.0557 2.76948C19.1327 3.15957 19.1322 3.561 19.054 3.95086C17.2888 12.7677 9.54983 15.7743 4.44197 15.7743ZM9.58919 27.7674C7.98447 27.7674 6.70675 26.7894 6.62803 25.1665C6.5493 23.4982 7.83914 22.4082 9.51047 22.3295C9.51047 22.3295 17.2737 22.2235 21.2249 15.3837C21.4252 15.0413 21.6914 14.7418 22.0079 14.5027C22.3245 14.2635 22.6853 14.0894 23.0695 13.9903C23.4537 13.8912 23.8537 13.8692 24.2464 13.9254C24.6392 13.9816 25.0169 14.1151 25.3579 14.318C26.8051 15.1536 27.3017 17.0248 26.463 18.4751C20.8586 28.1822 9.63764 27.7674 9.58919 27.7674ZM16.2745 43.3816C14.0521 43.3816 11.9932 42.9729 10.437 42.2371C9.71104 41.8934 9.15138 41.2754 8.8811 40.5191C8.61082 39.7628 8.65206 38.93 8.99575 38.2041C9.33944 37.4782 9.95743 36.9185 10.7138 36.6482C11.4701 36.378 12.3028 36.4192 13.0287 36.7629C15.5418 37.9528 21.888 37.4865 24.3224 33.6988C24.5373 33.3642 24.816 33.0752 25.1426 32.8483C25.4692 32.6214 25.8372 32.4611 26.2258 32.3765C26.6144 32.2919 27.0158 32.2846 27.4071 32.3551C27.7985 32.4256 28.1722 32.5725 28.5067 32.7874C28.8413 33.0023 29.1303 33.281 29.3572 33.6076C29.5841 33.9342 29.7444 34.3023 29.829 34.6909C29.9137 35.0794 29.9209 35.4808 29.8504 35.8722C29.7799 36.2636 29.633 36.6372 29.4181 36.9718C26.4993 41.5165 21.013 43.3816 16.2745 43.3816ZM19.7898 60.1101C15.0846 60.1101 10.7216 57.9937 7.90272 55.6411C7.59715 55.3866 7.3447 55.0744 7.15978 54.7224C6.97485 54.3704 6.86108 53.9853 6.82495 53.5893C6.78882 53.1933 6.83105 52.7941 6.94922 52.4144C7.06738 52.0347 7.25918 51.682 7.51365 51.3765C7.76812 51.0709 8.08029 50.8184 8.43233 50.6335C8.78436 50.4486 9.16938 50.3348 9.56538 50.2987C9.96139 50.2626 10.3606 50.3048 10.7403 50.423C11.12 50.5411 11.4727 50.7329 11.7783 50.9874C12.3657 51.4809 17.6885 55.7289 23.2293 53.3642C23.5955 53.2089 23.9887 53.1273 24.3865 53.124C24.7842 53.1207 25.1787 53.1957 25.5475 53.3449C25.9162 53.4941 26.2519 53.7144 26.5355 53.9933C26.8191 54.2722 27.045 54.6042 27.2003 54.9704C27.3555 55.3366 27.4371 55.7298 27.4405 56.1276C27.4438 56.5253 27.3687 56.9198 27.2195 57.2886C27.0704 57.6573 26.8501 57.993 26.5712 58.2766C26.2923 58.5602 25.9602 58.7861 25.594 58.9414C23.7575 59.7169 21.7834 60.1144 19.7898 60.1101ZM18.5454 75.8333H18.4606C10.879 75.8333 4.29361 71.0797 1.70486 66.423C0.890387 64.9636 1.42025 63.262 2.87964 62.4506C4.34205 61.6361 6.18597 62.2386 6.99741 63.698C8.46286 66.3352 13.0409 70.1593 18.6271 70.3137C20.2984 70.3621 21.6155 71.4885 21.5701 73.1568C21.5247 74.7978 20.1804 75.8333 18.5454 75.8333ZM71.3438 76.4025C70.8954 76.4028 70.4526 76.3035 70.0473 76.1118C69.642 75.9201 69.2843 75.6408 69.0001 75.294C68.716 74.9472 68.5123 74.5417 68.4039 74.1066C68.2956 73.6716 68.2852 73.2179 68.3735 72.7783C70.3839 62.72 80.1637 60.213 84.9597 61.1244C85.7485 61.2728 86.4461 61.7283 86.8992 62.3909C87.3523 63.0535 87.5237 63.8689 87.3758 64.6578C87.3046 65.0495 87.1564 65.4232 86.9397 65.7572C86.723 66.0912 86.4422 66.3789 86.1136 66.6036C85.785 66.8283 85.415 66.9856 85.0251 67.0664C84.6353 67.1471 84.2333 67.1497 83.8424 67.074C82.5556 66.8317 75.6977 67.0528 74.314 73.9652C74.1774 74.6524 73.8067 75.2709 73.265 75.7154C72.7234 76.1598 72.0444 76.4027 71.3438 76.4025ZM63.5805 62.7775C63.0489 62.7779 62.5267 62.6382 62.0663 62.3725C61.6059 62.1067 61.2236 61.7243 60.9581 61.2638C60.6925 60.8033 60.553 60.281 60.5536 59.7494C60.5542 59.2178 60.6949 58.6958 60.9615 58.2359C66.5689 48.5288 73.0242 48.2321 77.2933 48.0353L77.6294 48.0202C78.4316 47.9816 79.2163 48.2633 79.8108 48.8033C80.4053 49.3433 80.761 50.0974 80.7995 50.8996C80.8381 51.7018 80.5563 52.4865 80.0163 53.081C79.4763 53.6755 78.7223 54.0311 77.9201 54.0697L77.5719 54.0848C73.9264 54.2544 70.1569 54.4239 66.2056 61.2637C65.9396 61.7244 65.5569 62.1069 65.0961 62.3726C64.6352 62.6384 64.1125 62.7781 63.5805 62.7775ZM60.5527 44.4201C60.0093 44.4202 59.4758 44.2739 59.0084 43.9965C58.5411 43.7191 58.1571 43.3209 57.8968 42.8438C57.6366 42.3667 57.5097 41.8282 57.5295 41.2851C57.5493 40.742 57.7151 40.2142 58.0094 39.7574C62.2937 33.0872 72.1068 32.1849 76.9875 34.4951C77.7092 34.841 78.2645 35.4585 78.5321 36.2127C78.7998 36.9669 78.758 37.7963 78.4159 38.5198C78.0738 39.2432 77.4592 39.8018 76.7064 40.0734C75.9537 40.345 75.124 40.3076 74.3988 39.9693C71.8887 38.7794 65.5395 39.2457 63.0991 43.0334C62.8246 43.4591 62.4476 43.8091 62.0027 44.0514C61.5578 44.2937 61.0593 44.4204 60.5527 44.4201ZM77.584 26.4442C76.8758 26.4439 76.1901 26.1953 75.6462 25.7418C75.0588 25.2513 69.736 21.0215 64.1982 23.365C63.4665 23.6398 62.657 23.6213 61.9386 23.3134C61.2202 23.0055 60.6486 22.432 60.343 21.7126C60.0374 20.9932 60.0216 20.1836 60.2987 19.4528C60.5759 18.7221 61.1247 18.1266 61.8305 17.7908C68.5491 14.9387 75.5614 17.7878 79.5248 21.0911C80.0027 21.4897 80.3462 22.0258 80.5086 22.6265C80.6709 23.2273 80.6442 23.8634 80.4321 24.4484C80.22 25.0335 79.8328 25.5389 79.3232 25.896C78.8136 26.2532 78.2063 26.4446 77.584 26.4442ZM83.0764 14.5208C82.5361 14.5214 82.0055 14.3774 81.5397 14.1037C81.0738 13.8301 80.6897 13.4367 80.4271 12.9646C78.9616 10.3243 74.3836 6.53658 68.7974 6.38216C67.123 6.33675 65.809 4.85011 65.8514 3.17575C65.9028 1.53469 67.2472 0.138885 68.8791 0.138885H68.9639C76.5485 0.138885 83.1339 5.26794 85.7196 9.92466C86.1111 10.6343 86.207 11.4698 85.9865 12.2497C85.7661 13.0297 85.247 13.6912 84.5418 14.0909C84.0981 14.3571 83.5936 14.5051 83.0764 14.5208Z" fill="#DD2E44"/>
</svg>
