<svg width="46" height="46" viewBox="0 0 46 46" fill="none" xmlns="http://www.w3.org/2000/svg">
<g id="material-symbols:sports-baseball">
<path id="Vector" d="M8.00201 34.9312C6.66034 33.2062 5.63045 31.3298 4.91234 29.302C4.19423 27.2741 3.83453 25.1735 3.83326 23C3.83198 20.8265 4.19167 18.7265 4.91234 16.6999C5.63301 14.6733 6.66289 12.7963 8.00201 11.0687C9.85478 12.5062 11.3083 14.2715 12.3624 16.3645C13.4166 18.4575 13.9437 20.6693 13.9437 23C13.9437 25.3306 13.4166 27.5431 12.3624 29.6374C11.3083 31.7317 9.85478 33.4963 8.00201 34.9312ZM22.9999 42.1666C20.6999 42.1666 18.5041 41.7833 16.4123 41.0166C14.3206 40.25 12.4116 39.1319 10.6853 37.6625C12.8895 35.8416 14.6145 33.6618 15.8603 31.1228C17.1062 28.5839 17.7291 25.8763 17.7291 23C17.7291 20.1237 17.1062 17.4167 15.8603 14.8791C14.6145 12.3414 12.8895 10.1609 10.6853 8.33748C12.4103 6.86803 14.3193 5.74998 16.4123 4.98331C18.5053 4.21665 20.7012 3.83331 22.9999 3.83331C25.2986 3.83331 27.4951 4.21665 29.5894 4.98331C31.6837 5.74998 33.5921 6.86803 35.3145 8.33748C33.1103 10.1583 31.3853 12.3388 30.1395 14.8791C28.8937 17.4193 28.2708 20.1263 28.2708 23C28.2708 25.8737 28.8937 28.5813 30.1395 31.1228C31.3853 33.6643 33.1103 35.8442 35.3145 37.6625C33.5895 39.1319 31.6805 40.25 29.5875 41.0166C27.4945 41.7833 25.2986 42.1666 22.9999 42.1666ZM37.9978 34.9312C36.1451 33.4937 34.6916 31.7291 33.6374 29.6374C32.5833 27.5457 32.0562 25.3332 32.0562 23C32.0562 20.6668 32.5833 18.4543 33.6374 16.3626C34.6916 14.2708 36.1451 12.5062 37.9978 11.0687C39.3395 12.7937 40.37 14.6708 41.0894 16.6999C41.8088 18.729 42.1679 20.829 42.1666 23C42.1653 25.1709 41.8063 27.2716 41.0894 29.302C40.3726 31.3324 39.3421 33.2088 37.9978 34.9312Z" fill="#005596"/>
</g>
</svg>
