<svg width="46" height="46" viewBox="0 0 46 46" fill="none" xmlns="http://www.w3.org/2000/svg">
<path d="M8.00225 34.9312C6.66058 33.2062 5.63069 31.3298 4.91258 29.302C4.19447 27.2741 3.83478 25.1735 3.8335 23C3.83222 20.8265 4.19192 18.7265 4.91258 16.6999C5.63325 14.6733 6.66314 12.7963 8.00225 11.0687C9.85503 12.5062 11.3085 14.2715 12.3627 16.3645C13.4168 18.4575 13.9439 20.6693 13.9439 23C13.9439 25.3306 13.4168 27.5431 12.3627 29.6374C11.3085 31.7317 9.85503 33.4963 8.00225 34.9312ZM23.0002 42.1666C20.7002 42.1666 18.5043 41.7833 16.4126 41.0166C14.3209 40.25 12.4119 39.1319 10.6856 37.6625C12.8897 35.8416 14.6147 33.6618 15.8606 31.1228C17.1064 28.5839 17.7293 25.8763 17.7293 23C17.7293 20.1237 17.1064 17.4167 15.8606 14.8791C14.6147 12.3414 12.8897 10.1609 10.6856 8.33748C12.4106 6.86804 14.3196 5.74998 16.4126 4.98331C18.5056 4.21665 20.7014 3.83331 23.0002 3.83331C25.2989 3.83331 27.4954 4.21665 29.5897 4.98331C31.6839 5.74998 33.5923 6.86804 35.3147 8.33748C33.1106 10.1583 31.3856 12.3388 30.1397 14.8791C28.8939 17.4193 28.271 20.1263 28.271 23C28.271 25.8737 28.8939 28.5813 30.1397 31.1228C31.3856 33.6643 33.1106 35.8442 35.3147 37.6625C33.5897 39.1319 31.6807 40.25 29.5877 41.0166C27.4947 41.7833 25.2989 42.1666 23.0002 42.1666ZM37.9981 34.9312C36.1453 33.4937 34.6918 31.7291 33.6377 29.6374C32.5835 27.5457 32.0564 25.3332 32.0564 23C32.0564 20.6668 32.5835 18.4543 33.6377 16.3626C34.6918 14.2708 36.1453 12.5062 37.9981 11.0687C39.3398 12.7937 40.3703 14.6708 41.0897 16.6999C41.8091 18.729 42.1681 20.829 42.1668 23C42.1656 25.1709 41.8065 27.2716 41.0897 29.302C40.3728 31.3324 39.3423 33.2088 37.9981 34.9312Z" fill="#EBEBEB"/>
</svg>
