<svg width="46" height="46" viewBox="0 0 46 46" fill="none" xmlns="http://www.w3.org/2000/svg">
<path d="M35.0476 28.4762H8.7619L0 37.2381V2.19048C0 1.60953 0.230782 1.05237 0.641576 0.641576C1.05237 0.230782 1.60953 0 2.19048 0H35.0476C35.6286 0 36.1857 0.230782 36.5965 0.641576C37.0073 1.05237 37.2381 1.60953 37.2381 2.19048V26.2857C37.2381 26.8667 37.0073 27.4238 36.5965 27.8346C36.1857 28.2454 35.6286 28.4762 35.0476 28.4762ZM46 15.3333V46L37.2381 37.2381H13.1429C12.5619 37.2381 12.0048 37.0073 11.594 36.5965C11.1832 36.1857 10.9524 35.6286 10.9524 35.0476V32.8571H41.619V13.1429H43.8095C44.3905 13.1429 44.9476 13.3736 45.3584 13.7844C45.7692 14.1952 46 14.7524 46 15.3333ZM13.559 4.38095C11.6533 4.38095 10.12 4.81905 8.93714 5.67333C7.7981 6.57143 7.22857 7.82 7.25048 9.55048L7.27238 9.61619H11.5C11.5219 8.95905 11.719 8.45524 12.1133 8.10476C12.519 7.7684 13.0322 7.58953 13.559 7.60095C14.2381 7.60095 14.8076 7.82 15.2019 8.21429C15.5962 8.63048 15.7714 9.2 15.7714 9.85714C15.7714 10.5581 15.6181 11.1495 15.2676 11.6533C14.961 12.1571 14.501 12.5952 13.9314 12.9457C12.8143 13.6905 12.0476 14.3476 11.6314 14.939C11.1933 15.5086 10.9524 16.4286 10.9524 17.5238H15.3333C15.3333 16.8448 15.421 16.2971 15.6181 15.9029C15.8152 15.5086 16.1876 15.1143 16.7352 14.7638C17.721 14.2381 18.5314 13.6029 19.1667 12.7267C19.8019 11.8505 20.1305 10.9524 20.1305 9.85714C20.1305 8.19238 19.539 6.85619 18.3562 5.87048C17.1952 4.88476 15.5962 4.38095 13.559 4.38095ZM10.9524 19.7143V24.0952H15.3333V19.7143H10.9524ZM24.0952 24.0952H28.4762V19.7143H24.0952V24.0952ZM24.0952 4.38095V17.5238H28.4762V4.38095H24.0952Z" fill="#005596"/>
</svg>
