<svg width="38" height="38" viewBox="0 0 38 38" fill="none" xmlns="http://www.w3.org/2000/svg">
<path fill-rule="evenodd" clip-rule="evenodd" d="M18.9999 4.35419C15.1155 4.35419 11.3903 5.89723 8.64369 8.64385C5.89706 11.3905 4.35402 15.1157 4.35402 19C4.35402 21.3449 4.90502 23.5584 5.88194 25.5202C6.2746 26.3087 6.42502 27.2492 6.17802 28.1754L5.23435 31.6984C5.19473 31.8459 5.19465 32.0014 5.23411 32.149C5.27358 32.2966 5.3512 32.4313 5.45918 32.5394C5.56716 32.6476 5.7017 32.7254 5.84928 32.7651C5.99686 32.8048 6.15228 32.8049 6.29994 32.7655L9.82602 31.8219C10.7171 31.5933 11.6609 31.6987 12.4797 32.1179C14.5049 33.1267 16.7373 33.6498 18.9999 33.6459C22.8842 33.6459 26.6094 32.1028 29.356 29.3562C32.1026 26.6096 33.6457 22.8843 33.6457 19C33.6457 15.1157 32.1026 11.3905 29.356 8.64385C26.6094 5.89723 22.8842 4.35419 18.9999 4.35419ZM1.97902 19C1.97902 9.59977 9.5996 1.97919 18.9999 1.97919C28.4001 1.97919 36.0207 9.59977 36.0207 19C36.0207 28.4003 28.4001 36.0209 18.9999 36.0209C16.2797 36.0209 13.7052 35.3812 11.4204 34.2444C11.1189 34.0862 10.7706 34.0413 10.4388 34.1177L6.91427 35.0598C4.50127 35.7058 2.2941 33.4986 2.9401 31.0856L3.88377 27.5611C3.9602 27.2293 3.91526 26.881 3.7571 26.5794C2.58408 24.2252 1.97532 21.6303 1.97902 19ZM11.479 16.625C11.479 16.3101 11.6041 16.008 11.8268 15.7853C12.0495 15.5626 12.3516 15.4375 12.6665 15.4375H25.3332C25.6481 15.4375 25.9502 15.5626 26.1729 15.7853C26.3956 16.008 26.5207 16.3101 26.5207 16.625C26.5207 16.94 26.3956 17.242 26.1729 17.4647C25.9502 17.6874 25.6481 17.8125 25.3332 17.8125H12.6665C12.3516 17.8125 12.0495 17.6874 11.8268 17.4647C11.6041 17.242 11.479 16.94 11.479 16.625ZM11.479 22.1667C11.479 21.8517 11.6041 21.5497 11.8268 21.327C12.0495 21.1043 12.3516 20.9792 12.6665 20.9792H21.3749C21.6898 20.9792 21.9918 21.1043 22.2145 21.327C22.4372 21.5497 22.5624 21.8517 22.5624 22.1667C22.5624 22.4816 22.4372 22.7837 22.2145 23.0064C21.9918 23.2291 21.6898 23.3542 21.3749 23.3542H12.6665C12.3516 23.3542 12.0495 23.2291 11.8268 23.0064C11.6041 22.7837 11.479 22.4816 11.479 22.1667Z" fill="black" fill-opacity="0.7"/>
</svg>
