<svg width="204" height="111" viewBox="0 0 204 111" fill="none" xmlns="http://www.w3.org/2000/svg">
<g id="t119_header_primary 1" clip-path="url(#clip0_45_10)">
<g id="Group">
<path id="Vector" d="M0.194372 65.6924C-0.545501 72.4297 0.718653 76.9223 5.90022 79.1127C9.70003 80.7177 14.1107 77.3014 15.3781 75.3897C17.4605 72.2554 17.7382 68.9065 17.7382 68.9065C17.7382 68.9065 10.484 75.9348 6.31098 69.5248C3.89864 65.8141 5.19056 54.7963 19.3853 47.037C33.5867 39.2785 40.6293 45.6105 40.6293 45.6105C49.1673 50.4698 49.5446 64.871 47.0261 76.0557C45.1421 84.393 41.2222 93.1867 32.3184 94.8155C28.9686 95.4305 27.6881 95.0622 24.642 94.9389C25.3117 93.4046 27.8073 87.7954 28.5292 78.8208C30.646 52.5163 33.4887 49.9855 36.0627 46.0693C16.7574 55.9409 22.3318 89.573 18.5556 95.0984C4.39515 97.2 1.16944 108.843 3.97867 110.663C6.11009 112.036 15.7219 109.412 22.2697 98.7704C27.0193 98.6849 42.1671 102.871 51.4073 85.9273C57.6668 74.4425 59.639 54.4378 49.6107 44.5383C35.1481 30.2661 2.47932 44.854 0.196005 65.6924H0.194372ZM8.84256 105.028C8.18108 103.329 12.7502 99.2999 16.8456 99.124C15.2907 101.888 9.50403 106.728 8.84256 105.028ZM196.401 28.5526C194.307 22.5463 186.373 23.7344 184.356 25.642C184.356 17.7182 180.385 15.6084 176.274 10.7392C175.362 7.32861 178.021 6.20874 178.391 3.28985C179.141 -2.62521 169.923 -0.89279 172.529 11.1914C171.431 16.8302 165.496 34.0985 162.403 34.5376C160.623 34.7958 160.529 31.8958 161.444 28.4597C162.353 25.0097 167.286 18.7887 164.249 15.6446C162.485 13.8143 159.181 16.5597 156.236 14.9062C156.236 14.9062 156.331 12.4149 155.562 11.4833C154.798 10.5608 153.455 10.9053 152.643 11.5326C150.42 13.2634 150.305 18.0019 151.513 20.4225C150.607 26.3178 149.868 28.6957 147.011 36.6449C144.079 44.8145 137.111 48.7135 135.541 43.7325C149.445 30.2596 146.372 25.0779 144.15 23.2427C140.573 20.2868 129.47 25.6395 128.922 42.6291C128.909 43.3247 129.012 44.2267 129.154 45.0793C128.06 46.3784 126.125 48.7661 123.698 52.1537C124.838 44.6139 126.437 33.7113 126.952 29.67C126.952 29.67 124.18 31.474 121.11 31.8489L120.699 34.6527C117.726 30.1494 103.901 34.3715 104.387 56.3881C103.699 63.1452 100.088 63.9156 99.9964 62.2851C99.5187 54.2537 104.476 30.5917 106.148 22.0127C106.148 22.0127 102.88 23.8545 100.358 23.8923C100.358 23.8923 96.0896 45.6812 95.9941 45.7058C93.7663 43.9298 92.2686 44.1707 90.5504 44.5712C85.3386 45.7765 81.2872 53.1445 81.0447 57.8402C80.1301 58.7578 79.0619 59.603 77.9938 60.1424C77.3404 57.3353 76.0616 54.761 73.2132 53.896C63.7712 50.9993 56.0703 65.0708 58.5611 78.3267C58.5611 78.3267 59.4724 82.0185 63.0174 84.3569C69.6502 87.6869 78.3171 78.6589 78.4135 64.5742C79.6956 63.7339 80.8552 62.1733 80.8552 61.9875C80.2877 66.263 81.5674 74.2633 86.3675 74.9589C91.4797 75.6939 94.3559 69.5042 95.1546 66.9323C95.7752 68.5028 97.348 69.8701 99.268 69.7854C103.642 69.6029 105.017 63.9616 105.839 61.5657C109.732 67.7866 116.011 62.0508 117.383 58.3738L116.923 61.4218C113.376 65.7138 106.752 76.4027 106.752 76.4027C94.4808 80.8789 70.5836 89.7687 60.7186 104.634C68.7347 103.039 75.6092 105.098 75.6092 105.098C77.2098 100.732 86.9686 91.9756 101.283 87.1639C97.7654 94.3362 98.4554 104.878 104.467 104.762C114.855 104.555 118.282 86.5719 119.727 79.7475C128.955 75.7465 145.445 69.3546 162.677 61.9003C178.68 54.9772 201.587 43.4053 196.401 28.5526ZM73.726 61.7967C73.726 61.7967 72.5705 62.1108 71.4582 61.9809C69.6559 61.7712 68.355 60.9071 68.1966 60.1556C67.3448 56.102 73.5276 56.6743 73.726 61.7967ZM66.4441 77.8958C62.8672 77.1969 63.0027 67.5885 65.469 63.3918C67.0696 66.3296 71.2802 66.6413 73.8542 66.2482C74.0502 70.4235 70.8294 78.7567 66.4432 77.895L66.4441 77.8958ZM94.9627 52.3551C94.903 53.1716 93.9958 60.2978 93.8047 61.0773C92.9015 64.7255 91.0828 67.304 88.5488 67.2028C84.1912 67.0466 86.156 48.4808 92.3706 49.1057C93.6013 49.2291 95.1284 50.062 94.9627 52.3551ZM107.24 95.6287C104.096 96.1895 105.713 88.1605 108.156 84.3248C111.349 83.0997 114.044 81.8039 114.044 81.8039C112.386 89.7136 111.003 94.9594 107.239 95.6295L107.24 95.6287ZM115.243 73.2996C115.243 73.2996 113.592 74.0051 112.822 74.2723C113.896 72.6821 115.838 68.9706 116.26 68.2701C116.091 69.5149 115.242 73.3004 115.242 73.3004L115.243 73.2996ZM140.708 27.5207C144.251 29.3494 138.08 36.8341 135.267 39.91C135.68 32.9844 139.121 26.7002 140.708 27.5207ZM112.921 56.8469C108.115 57.7547 109.679 38.9389 116.776 38.097C118.127 37.9293 119.544 39.6099 119.267 42.3438C119.106 43.8912 118.711 47.1965 117.86 49.8893C116.959 52.7646 115.44 56.3651 112.921 56.8469ZM190.551 38.629C184.606 47.6709 168.333 54.0012 120.96 71.3452C121.385 68.3359 122.122 62.8656 122.727 59.2281C123.789 57.3534 125.039 55.2938 126.394 53.3097L126.771 52.7704C127.841 51.2361 128.98 49.7693 130.144 48.48C131.253 50.3053 132.945 52.7967 136.443 52.7013C148.167 52.3987 153.309 30.2415 155.14 21.5966C156.022 21.7841 157.181 21.9469 158.021 21.9124C157.168 24.7161 150.616 39.6888 159.311 42.2311C167.972 44.7775 173.319 20.6889 174.867 15.4374C180.121 21.5711 178.799 28.0355 176.119 29.3888C174.75 30.0713 173.183 27.9746 171.66 29.4341C169.38 31.6088 170.895 35.2389 174.037 35.7865C178.51 36.5455 181.48 33.4432 184.469 30.3064C185.398 29.3337 188.891 27.196 191.054 28.7138C194.307 30.9831 191.964 36.4673 190.551 38.6273V38.629Z" fill="white"/>
</g>
<path id="Vector_2" d="M201.199 38.9552H200.581V40.649H200.162V38.9552H199.544V38.5869H201.199V38.9552ZM204 40.649H203.584V39.0079H203.572L202.981 40.649H202.577L202.005 39.0079H201.995V40.649H201.579V38.5869H202.302L202.779 39.9337H202.789L203.285 38.5869H204.004V40.649H204Z" fill="white"/>
</g>
<defs>
<clipPath id="clip0_45_10">
<rect width="204" height="111" fill="white"/>
</clipPath>
</defs>
</svg>
