<svg width="33" height="66" viewBox="0 0 33 66" fill="none" xmlns="http://www.w3.org/2000/svg">
<path d="M32.1326 60.8768L6.77364 35.1105C6.21747 34.5483 5.90552 33.7894 5.90552 32.9986C5.90552 32.2078 6.21747 31.4489 6.77364 30.8867L32.1271 5.12041C32.683 4.55473 32.9945 3.79335 32.9945 3.00025C32.9945 2.20716 32.683 1.44578 32.1271 0.880103C31.8556 0.601553 31.531 0.380179 31.1726 0.229025C30.8141 0.0778719 30.429 -1.33009e-06 30.04 -1.31309e-06C29.651 -1.29609e-06 29.2659 0.077872 28.9075 0.229026C28.549 0.380179 28.2244 0.601554 27.9529 0.880103L2.59939 26.6409C0.933399 28.3377 -1.54648e-06 30.6206 -1.44254e-06 32.9986C-1.33859e-06 35.3765 0.9334 37.6595 2.59939 39.3563L27.9529 65.1171C28.2245 65.3965 28.5494 65.6186 28.9084 65.7702C29.2674 65.9219 29.6531 66 30.0428 66C30.4324 66 30.8182 65.9219 31.1771 65.7702C31.5361 65.6186 31.861 65.3965 32.1326 65.1171C32.6885 64.5514 33 63.79 33 62.9969C33 62.2038 32.6885 61.4424 32.1326 60.8768Z" fill="black"/>
</svg>
