<svg width="160" height="85" viewBox="0 0 160 85" fill="none" xmlns="http://www.w3.org/2000/svg">
<g id="1 1">
<g clip-path="url(#clip0_45_2)">
<rect width="160" height="85" rx="10" fill="white"/>
<path id="Vector" d="M158.296 9.03199C158.296 6.62977 157.374 4.30814 155.648 2.60688C153.94 0.931154 151.631 -0.00605702 149.228 -1.35324e-06H110.058L132.527 37.228L134.602 37.4877L135.855 39.1864V40.7751L137.276 41.0655L138.569 42.8371V44.3669L140.043 44.6227L141.519 46.2255V49.7316C141.519 49.7316 144.693 52.6161 147.504 53.711C149.493 54.4708 149.704 57.5932 150.9 59.2893C152.392 61.7325 154.447 62.7085 154.007 64.081C153.005 67.7419 149.228 73.9009 145.712 74.1977H131.8V80.1111H149.228C154.247 80.1111 158.296 76.0473 158.296 71.0331V9.03199Z" fill="#BF0D3E"/>
<path id="Vector_2" d="M62.4818 74.2568H55.7392C55.6799 57.5794 61.4187 48.3478 68.24 46.5174C69.1741 46.3485 68.7264 41.791 67.5433 40.4044C67.5433 40.4044 64.2365 40.4555 63.5424 40.3609C62.6779 40.1268 63.2766 39.1854 63.2766 39.1854L66.4672 32.4238L66.0311 30.5755H54.3097L63.9965 23.8651C64.4481 6.15289 82.7637 4.7727 93.8078 12.097C100.365 16.4039 100.876 24.9345 100.365 30.839C100.279 31.2202 98.6602 30.9669 98.6602 30.9669C98.6602 30.9669 97.5468 37.4329 100.459 37.4329H113.345C118.602 37.227 123.663 40.7485 123.663 40.7485L124.903 36.2843L96.6824 0.00279303H9.0973C6.67262 -0.00602609 4.34169 0.930762 2.6076 2.61096C0.89035 4.30709 0.00140381 6.63512 0.00140381 9.03735V71.0372C0.00140381 73.465 0.89035 75.7546 2.6076 77.438C3.45947 78.2836 4.47109 78.9546 5.58463 79.4124C6.69817 79.8702 7.8918 80.106 9.0973 80.1063H65.9499C64.8094 78.1474 63.6533 76.1975 62.4818 74.2568Z" fill="#041E42"/>
<path id="Vector_3" d="M12.6091 61.1019C12.6097 59.4739 13.2584 57.9119 14.4142 56.7555C15.57 55.5991 17.1394 54.9417 18.7814 54.9262C22.2559 54.9262 25.0595 57.7032 25.0595 61.1019C25.0595 64.5159 22.2559 67.275 18.7814 67.275C15.3353 67.2993 12.6091 64.5159 12.6091 61.1019Z" fill="white"/>
<g id="Group">
<path id="Vector_4" d="M158.727 81.9851C158.727 81.2879 158.306 81.1869 157.706 81.1869H156.424V83.781H156.978V82.7487H157.427L158.032 83.781H158.649L158.025 82.7487C158.474 82.718 158.727 82.4648 158.727 81.9851ZM157.715 82.2818H156.978V81.6487H157.589C157.852 81.6487 158.178 81.6487 158.178 81.9365C158.178 82.214 158.025 82.2818 157.715 82.2818Z" fill="#BF0D3E"/>
<path id="Vector_5" d="M157.479 79.9909C156.083 79.9909 154.977 81.0974 154.977 82.507C154.976 82.8337 155.039 83.1575 155.164 83.4598C155.289 83.7622 155.473 84.037 155.706 84.2687C155.938 84.5003 156.215 84.6841 156.519 84.8097C156.823 84.9352 157.149 84.9998 157.479 85C157.81 85.0008 158.137 84.937 158.443 84.8121C158.749 84.6872 159.027 84.5037 159.261 84.2721C159.495 84.0405 159.681 83.7654 159.808 83.4625C159.935 83.1596 160 82.8349 160 82.507C160.004 82.1769 159.941 81.8494 159.816 81.5436C159.691 81.2377 159.506 80.9596 159.271 80.7254C159.036 80.4912 158.757 80.3057 158.449 80.1796C158.142 80.0535 157.812 79.9894 157.479 79.9909ZM157.479 84.4538C157.222 84.4549 156.967 84.4051 156.729 84.3073C156.492 84.2096 156.276 84.0659 156.095 83.8847C155.914 83.7034 155.772 83.4882 155.676 83.2517C155.58 83.0151 155.532 82.7619 155.536 82.507C155.536 81.3762 156.409 80.5384 157.479 80.5384C158.56 80.5384 159.453 81.3762 159.453 82.507C159.453 83.6147 158.56 84.4538 157.479 84.4538Z" fill="#BF0D3E"/>
</g>
</g>
</g>
<defs>
<clipPath id="clip0_45_2">
<rect width="160" height="85" rx="10" fill="white"/>
</clipPath>
</defs>
</svg>
