<svg width="46" height="40" viewBox="0 0 46 40" fill="none" xmlns="http://www.w3.org/2000/svg">
<path fill-rule="evenodd" clip-rule="evenodd" d="M9.36503 2.40446C10.5837 1.18539 12.2368 0.500331 13.9605 0.499963C15.6722 0.499963 18.1812 0.0232958 18.9482 2.04046C19.2609 2.86173 19.8159 3.56856 20.5394 4.06728C21.263 4.566 22.1211 4.83306 22.9999 4.83306C23.8787 4.83306 24.7367 4.566 25.4603 4.06728C26.1838 3.56856 26.7388 2.86173 27.0515 2.04046C27.8185 0.0254625 30.3297 0.502129 32.0392 0.502129C33.7619 0.502497 35.414 1.18672 36.6325 2.40446L44.6665 10.4363C45.4789 11.2489 45.9353 12.3509 45.9353 13.5C45.9353 14.649 45.4789 15.751 44.6665 16.5636L41.4642 19.766C40.3375 20.8926 38.7645 21.2588 37.3475 20.9056L37.9369 32.675C37.9809 33.5548 37.8457 34.4344 37.5393 35.2603C37.233 36.0862 36.762 36.8413 36.1549 37.4796C35.5478 38.1179 34.8173 38.6261 34.0077 38.9735C33.1981 39.3208 32.3264 39.4999 31.4455 39.5H14.5542C13.6733 39.4999 12.8016 39.3208 11.992 38.9735C11.1825 38.6261 10.4519 38.1179 9.84485 37.4796C9.23775 36.8413 8.76673 36.0862 8.4604 35.2603C8.15406 34.4344 8.01881 33.5548 8.06286 32.675L8.65219 20.9056C7.92602 21.0874 7.16513 21.078 6.44368 20.8783C5.72223 20.6785 5.06483 20.2953 4.53553 19.766L1.33319 16.5636C0.52082 15.751 0.0644531 14.649 0.0644531 13.5C0.0644531 12.3509 0.52082 11.2489 1.33319 10.4363L9.36503 2.40446Z" fill="#005596"/>
</svg>
