<svg width="33" height="66" viewBox="0 0 33 66" fill="none" xmlns="http://www.w3.org/2000/svg">
<path id="Vector" d="M0.867363 60.8768L26.2264 35.1105C26.7825 34.5483 27.0945 33.7894 27.0945 32.9986C27.0945 32.2078 26.7825 31.4489 26.2264 30.8867L0.872866 5.12041C0.316985 4.55473 0.00550351 3.79335 0.00550355 3.00025C0.00550358 2.20716 0.316985 1.44578 0.872867 0.880103C1.14443 0.601553 1.46899 0.380179 1.82744 0.229025C2.18589 0.0778719 2.57098 -1.33009e-06 2.96 -1.31309e-06C3.34901 -1.29609e-06 3.73409 0.077872 4.09254 0.229026C4.45099 0.380179 4.77556 0.601554 5.04712 0.880103L30.4006 26.6409C32.0666 28.3377 33 30.6206 33 32.9986C33 35.3765 32.0666 37.6595 30.4006 39.3563L5.04712 65.1171C4.77547 65.3965 4.45057 65.6186 4.09161 65.7702C3.73265 65.9219 3.34692 66 2.95724 66C2.56756 66 2.18184 65.9219 1.82288 65.7702C1.46392 65.6186 1.13901 65.3965 0.867363 65.1171C0.311482 64.5514 9.66015e-08 63.79 1.31269e-07 62.9969C1.65936e-07 62.2038 0.311482 61.4424 0.867363 60.8768Z" fill="black"/>
</svg>
