<svg width="38" height="38" viewBox="0 0 38 38" fill="none" xmlns="http://www.w3.org/2000/svg">
<path d="M12.0728 10.1334L16.5061 4.39378C16.8228 3.97156 17.1991 3.66175 17.635 3.46436C18.071 3.26697 18.5259 3.16775 18.9999 3.1667C19.4738 3.16564 19.9293 3.26486 20.3663 3.46436C20.8033 3.66386 21.179 3.97367 21.4936 4.39378L25.9269 10.1334L32.6561 12.3896C33.3422 12.6007 33.8832 12.9902 34.279 13.5581C34.6749 14.126 34.8728 14.7525 34.8728 15.4375C34.8728 15.7542 34.8263 16.0709 34.7334 16.3875C34.6405 16.7042 34.4891 17.0077 34.279 17.2979L29.9249 23.4729L30.0832 29.9646C30.1096 30.8882 29.8061 31.6667 29.1728 32.3C28.5394 32.9334 27.8005 33.25 26.9561 33.25C26.9033 33.25 26.613 33.2104 26.0853 33.1313L18.9999 31.1521L11.9144 33.1313C11.7825 33.1841 11.6374 33.2173 11.479 33.231C11.3207 33.2448 11.1755 33.2511 11.0436 33.25C10.1992 33.25 9.46027 32.9334 8.82694 32.3C8.1936 31.6667 7.89013 30.8882 7.91652 29.9646L8.07485 23.4334L3.76027 17.2979C3.54916 17.0077 3.39716 16.7042 3.30427 16.3875C3.21138 16.0709 3.16547 15.7542 3.16652 15.4375C3.16652 14.7778 3.3581 14.1645 3.74127 13.5977C4.12444 13.0309 4.65855 12.6282 5.3436 12.3896L12.0728 10.1334Z" fill="black" fill-opacity="0.7"/>
</svg>
